<svg xmlns="http://www.w3.org/2000/svg" width="204" height="40" viewBox="0 0 204 40">
    <g fill="none" fill-rule="nonzero">
        <g fill="#001E47">
            <path d="M80.281 22.462l-5.276 7.296c-.044.044-.088.088-.176.088h-4.22c-.176 0-.264-.176-.176-.308l7.078-9.846a.267.267 0 0 0 0-.351l-6.375-8.836c-.088-.131 0-.307.176-.307h4.22c.045 0 .133.044.177.088l4.572 6.285 4.572-6.285c.044-.044.088-.088.176-.088h4.221c.176 0 .264.176.176.307l-6.375 8.836a.267.267 0 0 0 0 .351l7.078 9.846c.088.132 0 .308-.176.308h-4.22a.333.333 0 0 1-.176-.088l-5.276-7.296zM102 9.714c5.803 0 10.2 4.396 10.2 10.242 0 5.846-4.353 10.242-10.2 10.242-5.847 0-10.2-4.396-10.2-10.242 0-5.846 4.353-10.242 10.2-10.242zm0 16.748c3.65 0 6.2-2.902 6.2-6.506s-2.55-6.505-6.2-6.505c-3.65 0-6.2 2.9-6.2 6.505 0 3.648 2.55 6.506 6.2 6.506zM117.388.22h3.561c.132 0 .22.088.22.22v29.23c0 .132-.088.22-.22.22h-3.561c-.132 0-.22-.088-.22-.22V.44c.044-.132.132-.22.22-.22zM130.27 20.835c-.132 0-.22.088-.22.22a6.32 6.32 0 0 0 6.331 5.714c2.814 0 4.397-1.318 5.54-2.55.088-.087.22-.087.263 0l2.33 2.199c.089.087.089.175 0 .263-1.494 1.846-4.264 3.56-8.177 3.56-5.76 0-10.2-4.35-10.2-10.241 0-5.89 4-10.242 9.585-10.242 5.495 0 9.452 4.44 9.452 10.242 0 .176 0 .44-.044.835h-14.86zm.132-3.34h10.727c-.571-2.506-2.857-4.264-5.188-4.264a5.63 5.63 0 0 0-5.54 4.264zM147.24 10.154h3.65c.088 0 .132.044.176.132l5.759 13.274 5.76-13.274c.043-.088.087-.132.175-.132h3.65c.131 0 .22.132.175.264l-8.353 19.296c-.044.088-.088.132-.176.132h-2.418c-.088 0-.132-.044-.176-.132l-8.353-19.296c-.088-.132 0-.264.132-.264zM172.565 20.835c-.132 0-.22.088-.22.22a6.32 6.32 0 0 0 6.33 5.714c2.815 0 4.397-1.318 5.54-2.55.088-.087.22-.087.264 0l2.33 2.199c.088.087.088.175 0 .263-1.494 1.846-4.264 3.56-8.177 3.56-5.76 0-10.2-4.35-10.2-10.241 0-5.89 4-10.242 9.584-10.242 5.496 0 9.453 4.44 9.453 10.242 0 .176 0 .44-.044.835h-14.86zm.088-3.34h10.727c-.571-2.506-2.858-4.264-5.188-4.264-2.55-.044-4.836 1.67-5.54 4.264zM203.428 13.45c0 .132-.131.176-.263.176a5.813 5.813 0 0 0-1.32-.131c-2.022 0-4.176 1.406-5.275 3.252 0 .044-.044.088-.044.088v12.747c0 .132-.088.22-.22.22h-3.561c-.132 0-.22-.088-.22-.22V10.286c0-.132.088-.22.22-.22h3.473c.132 0 .22.088.22.22v1.494c0 .176.22.264.352.132 1.055-1.187 2.99-2.242 5.583-2.242.352 0 .924.044 1.363.088.088 0 .176.132.176.22l-.484 3.473zM53.506 20.835c-.132 0-.22.088-.22.22a6.32 6.32 0 0 0 6.331 5.714c2.814 0 4.397-1.318 5.54-2.55.088-.087.22-.087.264 0l2.33 2.199c.088.087.088.175 0 .263-1.495 1.846-4.265 3.56-8.178 3.56-5.76 0-10.2-4.35-10.2-10.241 0-5.89 4.001-10.242 9.585-10.242 5.495 0 9.452 4.44 9.452 10.242 0 .176 0 .44-.044.835h-14.86zm.088-3.34h10.728c-.572-2.506-2.858-4.264-5.188-4.264-2.55-.044-4.837 1.67-5.54 4.264z"/>
        </g>
        <path fill="#FF7172" d="M16.4 5.407C8.75 5.538.79 11.385.22 21.23c-.044.923.66 1.714 1.583 1.714H5.32c0-1.626.22-2.725.22-2.77 1.055-6.329 5.627-9.933 11.21-9.933 1.847 0 3.562.483 5.057 1.362 3.034 1.67 4.66 5.1 4.528 8 0 2.374-.967 4.22-2.506 5.407a6.708 6.708 0 0 1-3.605 1.407c2.902.131 6.331-1.495 8.002-4.528.835-1.538 1.363-3.209 1.363-5.055 0-6.461-4.836-11.56-13.19-11.428z"/>
        <path fill="#001E47" d="M5.32 23.473c.132 7.648 5.98 15.604 15.827 16.175.924.044 1.715-.659 1.715-1.582v-3.517c-1.627 0-2.726-.22-2.77-.22-6.33-1.054-9.936-5.626-9.936-11.208 0-1.846.484-3.56 1.363-5.055 1.67-3.033 5.1-4.66 8.002-4.528 2.374 0 4.22.967 5.407 2.506a6.704 6.704 0 0 1 1.407 3.604c.132-2.9-1.494-6.33-4.528-8-1.539-.835-3.21-1.362-5.056-1.362-6.463 0-11.607 4.879-11.431 13.187z"/>
        <path fill="#6128FF" d="M23.39 34.55c7.65-.132 15.607-5.979 16.179-15.825.044-.923-.66-1.714-1.583-1.714H34.47c0 1.626-.22 2.725-.22 2.77-1.055 6.329-5.627 9.933-11.211 9.933a9.894 9.894 0 0 1-5.056-1.362c-3.034-1.67-4.66-5.1-4.529-8 0-2.374.968-4.22 2.506-5.407 1.056-.835 2.375-1.319 3.606-1.363-2.902-.131-6.331 1.495-8.002 4.528-.835 1.538-1.363 3.209-1.363 5.055 0 6.417 4.836 11.56 13.19 11.384z"/>
        <path fill="#FFC979" d="M34.469 16.484C34.337 8.835 28.489.879 18.641.308c-.923-.044-1.714.659-1.714 1.582v3.517c1.626 0 2.726.22 2.77.22 6.33 1.054 9.936 5.626 9.936 11.208 0 1.846-.484 3.56-1.363 5.055-1.67 3.033-5.1 4.66-8.002 4.528-2.374 0-4.22-.967-5.408-2.506a6.704 6.704 0 0 1-1.407-3.604c-.131 2.9 1.495 6.33 4.529 8 1.539.835 3.21 1.362 5.056 1.362 6.463 0 11.607-4.835 11.431-13.186z"/>
    </g>
</svg>
