<svg xmlns="http://www.w3.org/2000/svg" xmlns:xlink="http://www.w3.org/1999/xlink" width="98" height="98" viewBox="0 0 98 98">
    <defs>
        <path id="a" d="M0 0h98v98H0z"/>
    </defs>
    <g fill="none" fill-rule="evenodd">
        <path fill="#BBECFD" d="M49 3c25.405 0 46 20.595 46 46S74.405 95 49 95 3 74.405 3 49 23.595 3 49 3"/>
        <path fill="#BBECFD" d="M49 3v92c25.405 0 46-20.595 46-46S74.405 3 49 3"/>
        <g>
            <mask id="b" fill="#fff">
                <use xlink:href="#a"/>
            </mask>
            <path fill="#93A8ED" d="M49 92.258C25.148 92.258 5.742 72.852 5.742 49 5.742 25.148 25.148 5.742 49 5.742c23.852 0 43.258 19.406 43.258 43.258 0 23.852-19.406 43.258-43.258 43.258m34.648-77.906C74.393 5.097 62.088 0 49 0 35.911 0 23.607 5.097 14.351 14.352 5.097 23.607 0 35.912 0 49 0 61.127 4.378 72.58 12.382 81.558L.841 93.098a2.87 2.87 0 1 0 4.06 4.061l11.542-11.54C25.42 93.621 36.873 98 49 98c13.088 0 25.393-5.097 34.648-14.352C92.903 74.393 98 62.088 98 49c0-13.088-5.097-25.393-14.352-34.648" mask="url(#b)"/>
        </g>
        <path fill="#836ADB" d="M51.122 73.12c.558-.558.878-1.33.878-2.12s-.32-1.564-.878-2.122A3.026 3.026 0 0 0 49 68v6c.79 0 1.562-.32 2.122-.88"/>
        <path fill="#836ADB" d="M47 71c0 .788.32 1.562.88 2.12.558.56 1.33.88 2.12.88v-6c-.79 0-1.562.32-2.12.878A3.016 3.016 0 0 0 47 71M47 26.839V51.16C47 52.73 48.343 54 50 54V24c-1.657 0-3 1.27-3 2.839"/>
        <path fill="#836ADB" d="M52 51.161V26.84C52 25.27 50.657 24 49 24v30c1.657 0 3-1.27 3-2.839M49 68v6c.79 0 1.562-.32 2.122-.88.558-.558.878-1.33.878-2.12s-.32-1.564-.878-2.122A3.026 3.026 0 0 0 49 68"/>
        <path fill="#836ADB" d="M49 24v30c1.657 0 3-1.27 3-2.839V26.84C52 25.27 50.657 24 49 24"/>
        <path fill="#836ADB" d="M83.648 14.352C74.393 5.097 62.088 0 49 0v5.742c23.853 0 43.258 19.406 43.258 43.258 0 23.852-19.405 43.258-43.258 43.258V98c13.089 0 25.393-5.097 34.648-14.352C92.903 74.393 98 62.088 98 49c0-13.088-5.097-25.394-14.352-34.648"/>
    </g>
</svg>
