<svg xmlns="http://www.w3.org/2000/svg" xmlns:xlink="http://www.w3.org/1999/xlink" width="101" height="117" viewBox="0 0 101 117">
    <defs>
        <path id="a" d="M0 0h100.829v92.927H0z"/>
        <path id="c" d="M.066.193h25.807V26H.066z"/>
    </defs>
    <g fill="none" fill-rule="evenodd">
        <path fill="#836ADB" d="M52 74.115L38.334 88.088c-.867.886-2.334.249-2.334-1.015V67.5h16v6.615z"/>
        <g transform="translate(0 .5)">
            <mask id="b" fill="#fff">
                <use xlink:href="#a"/>
            </mask>
            <path fill="#BBECFD" d="M45.875 67.405l30.862 25.207c.791.646 1.992.248 2.231-.741l21.82-90.17c.269-1.11-.862-2.043-1.913-1.579L.825 43.342c-1.1.485-1.1 2.032 0 2.516l31.637 13.946 13.413 7.601z" mask="url(#b)"/>
        </g>
        <path fill="#93A8ED" d="M91.668 12.79l-45.99 56.318-7.496 18.573c-.588 1.276-2.503.996-2.691-.393L32 61.398l57.626-50.527c1.298-1.139 3.132.585 2.042 1.919"/>
        <path fill="#836ADB" d="M48.513 90.987a1.661 1.661 0 0 0-2.349 0l-14.677 14.677a1.661 1.661 0 0 0 2.349 2.35l14.677-14.678a1.66 1.66 0 0 0 0-2.35M23.146 71.99L8.49 86.645a1.672 1.672 0 0 0 2.364 2.365L25.51 74.354a1.672 1.672 0 0 0-2.364-2.365"/>
        <g transform="translate(0 90.5)">
            <mask id="d" fill="#fff">
                <use xlink:href="#c"/>
            </mask>
            <path fill="#836ADB" d="M22.985.689L.562 23.112a1.692 1.692 0 0 0 2.392 2.393L25.377 3.08A1.692 1.692 0 1 0 22.985.69" mask="url(#d)"/>
        </g>
    </g>
</svg>
